<svg fill="#626262" xmlns="http://www.w3.org/2000/svg" xml:space="preserve" version="1.0" viewBox="0 0 64 64"><path stroke-width="10" d="M64 20C64 8.953 55.047 0 44 0c-5.449 0-10.375 2.191-13.98 5.723l-.02-.02L5.879 29.84A19.939 19.939 0 0 0 0 44c0 11.047 8.953 20 20 20 5.535 0 10.539-2.25 14.16-5.879L58.297 34l-.02-.02C61.809 30.375 64 25.445 64 20zM32.744 56.709A17.885 17.885 0 0 1 20 62c-9.925 0-18-8.074-18-18 0-4.813 1.879-9.34 5.294-12.746l11.27-11.276 25.46 25.46-11.28 11.271zm12.694-12.686L19.977 18.562S31.343 7.225 31.419 7.151C34.811 3.83 39.278 2 44 2c9.925 0 18 8.074 18 18 0 4.721-1.829 9.189-5.151 12.581L45.438 44.023z"/><path d="M44 6a1 1 0 1 0 0 2c6.627 0 12 5.373 12 12a1 1 0 1 0 2 0c0-7.732-6.268-14-14-14z"/></svg>