<!DOCTYPE svg PUBLIC "-//W3C//DTD SVG 1.1//EN" "http://www.w3.org/Graphics/SVG/1.1/DTD/svg11.dtd">
<!-- Uploaded to: SVG Repo, www.svgrepo.com, Transformed by: SVG Repo Mixer Tools -->
<svg width="800px" height="800px" viewBox="0 0 24 24" fill="none" xmlns="http://www.w3.org/2000/svg">
<g id="SVGRepo_bgCarrier" stroke-width="0"/>
<g id="SVGRepo_tracerCarrier" stroke-linecap="round" stroke-linejoin="round"/>
<g id="SVGRepo_iconCarrier"> <path fill-rule="evenodd" clip-rule="evenodd" d="M15.6 9C15.6 11.2091 13.8539 13 11.7 13C9.54608 13 7.79999 11.2091 7.79999 9C7.79999 6.79086 9.54608 5 11.7 5C12.7343 5 13.7263 5.42143 14.4577 6.17157C15.1891 6.92172 15.6 7.93913 15.6 9Z" stroke="#c7c2c2" stroke-width="1.5" stroke-linecap="round" stroke-linejoin="round"/> <path d="M12.45 13C12.45 12.5858 12.1142 12.25 11.7 12.25C11.2858 12.25 10.95 12.5858 10.95 13H12.45ZM10.95 19C10.95 19.4142 11.2858 19.75 11.7 19.75C12.1142 19.75 12.45 19.4142 12.45 19H10.95ZM11.6185 6.66744C11.2067 6.71248 10.9094 7.08279 10.9545 7.49454C10.9995 7.9063 11.3698 8.20358 11.7816 8.15854L11.6185 6.66744ZM12.9287 8.85878C13.0871 9.24152 13.5258 9.42338 13.9085 9.26499C14.2913 9.1066 14.4731 8.66793 14.3147 8.2852L12.9287 8.85878ZM10.95 13V19H12.45V13H10.95ZM11.7816 8.15854C12.2597 8.10624 12.7304 8.37955 12.9287 8.85878L14.3147 8.2852C13.8691 7.20829 12.7792 6.54046 11.6185 6.66744L11.7816 8.15854Z" fill="#c7c2c2"/> </g>
</svg>